<svg width="115" height="18" viewBox="0 0 115 18" fill="none" xmlns="http://www.w3.org/2000/svg">
<path d="M0.390625 1H4.5625L8.96875 11.75H9.15625L13.5625 1H17.7344V17H14.4531V6.58594H14.3203L10.1797 16.9219H7.94531L3.80469 6.54687H3.67188V17H0.390625V1ZM25.6609 17.2344C24.4473 17.2344 23.3978 16.9766 22.5124 16.4609C21.6322 15.9401 20.9525 15.2161 20.4734 14.2891C19.9942 13.3568 19.7546 12.276 19.7546 11.0469C19.7546 9.80729 19.9942 8.72396 20.4734 7.79687C20.9525 6.86458 21.6322 6.14062 22.5124 5.625C23.3978 5.10417 24.4473 4.84375 25.6609 4.84375C26.8744 4.84375 27.9213 5.10417 28.8015 5.625C29.6869 6.14062 30.3692 6.86458 30.8484 7.79687C31.3275 8.72396 31.5671 9.80729 31.5671 11.0469C31.5671 12.276 31.3275 13.3568 30.8484 14.2891C30.3692 15.2161 29.6869 15.9401 28.8015 16.4609C27.9213 16.9766 26.8744 17.2344 25.6609 17.2344ZM25.6765 14.6562C26.2286 14.6562 26.6895 14.5 27.0593 14.1875C27.4291 13.8698 27.7077 13.4375 27.8952 12.8906C28.0879 12.3437 28.1843 11.7214 28.1843 11.0234C28.1843 10.3255 28.0879 9.70313 27.8952 9.15625C27.7077 8.60937 27.4291 8.17708 27.0593 7.85937C26.6895 7.54167 26.2286 7.38281 25.6765 7.38281C25.1192 7.38281 24.6504 7.54167 24.2702 7.85937C23.8952 8.17708 23.6114 8.60937 23.4187 9.15625C23.2312 9.70313 23.1374 10.3255 23.1374 11.0234C23.1374 11.7214 23.2312 12.3437 23.4187 12.8906C23.6114 13.4375 23.8952 13.8698 24.2702 14.1875C24.6504 14.5 25.1192 14.6562 25.6765 14.6562ZM44.312 5L40.1166 17H36.3666L32.1713 5H35.687L38.1791 13.5859H38.3041L40.7885 5H44.312ZM45.7951 17V5H49.1232V17H45.7951ZM47.467 3.45312C46.9722 3.45312 46.5477 3.28906 46.1935 2.96094C45.8446 2.6276 45.6701 2.22917 45.6701 1.76562C45.6701 1.30729 45.8446 0.914062 46.1935 0.585938C46.5477 0.252604 46.9722 0.0859367 47.467 0.0859367C47.9617 0.0859367 48.3836 0.252604 48.7326 0.585938C49.0867 0.914062 49.2638 1.30729 49.2638 1.76562C49.2638 2.22917 49.0867 2.6276 48.7326 2.96094C48.3836 3.28906 47.9617 3.45312 47.467 3.45312ZM57.038 17.2344C55.8036 17.2344 54.7411 16.9844 53.8505 16.4844C52.9651 15.9792 52.2828 15.2656 51.8036 14.3437C51.3244 13.4167 51.0848 12.3203 51.0848 11.0547C51.0848 9.82031 51.3244 8.73698 51.8036 7.80469C52.2828 6.8724 52.9572 6.14583 53.827 5.625C54.702 5.10417 55.7281 4.84375 56.9052 4.84375C57.6968 4.84375 58.4338 4.97135 59.1161 5.22656C59.8036 5.47656 60.4026 5.85417 60.913 6.35937C61.4286 6.86458 61.8296 7.5 62.1161 8.26562C62.4026 9.02604 62.5458 9.91667 62.5458 10.9375V11.8516H52.413V9.78906H59.413C59.413 9.3099 59.3088 8.88542 59.1005 8.51563C58.8921 8.14583 58.6031 7.85677 58.2333 7.64844C57.8687 7.4349 57.4442 7.32812 56.9598 7.32812C56.4546 7.32812 56.0067 7.44531 55.6161 7.67969C55.2307 7.90885 54.9286 8.21875 54.7098 8.60937C54.4911 8.99479 54.3791 9.42448 54.3739 9.89844V11.8594C54.3739 12.4531 54.4833 12.9661 54.702 13.3984C54.926 13.8307 55.2411 14.1641 55.6473 14.3984C56.0536 14.6328 56.5354 14.75 57.0927 14.75C57.4624 14.75 57.801 14.6979 58.1083 14.5938C58.4156 14.4896 58.6786 14.3333 58.8973 14.125C59.1161 13.9167 59.2828 13.6615 59.3973 13.3594L62.4755 13.5625C62.3192 14.3021 61.9989 14.9479 61.5145 15.5C61.0354 16.0469 60.4156 16.474 59.6552 16.7813C58.8999 17.0833 58.0276 17.2344 57.038 17.2344Z" fill="white"/>
<path d="M64.4352 17V15.0156L70.3102 7.74219V7.65625H64.6383V5H74.318V7.16406L68.8023 14.2578V14.3437H74.5211V17H64.4352ZM81.9241 17.2344C80.7106 17.2344 79.6611 16.9766 78.7757 16.4609C77.8955 15.9401 77.2158 15.2161 76.7366 14.2891C76.2575 13.3568 76.0179 12.276 76.0179 11.0469C76.0179 9.80729 76.2575 8.72396 76.7366 7.79687C77.2158 6.86458 77.8955 6.14062 78.7757 5.625C79.6611 5.10417 80.7106 4.84375 81.9241 4.84375C83.1377 4.84375 84.1846 5.10417 85.0648 5.625C85.9502 6.14062 86.6325 6.86458 87.1116 7.79687C87.5908 8.72396 87.8304 9.80729 87.8304 11.0469C87.8304 12.276 87.5908 13.3568 87.1116 14.2891C86.6325 15.2161 85.9502 15.9401 85.0648 16.4609C84.1846 16.9766 83.1377 17.2344 81.9241 17.2344ZM81.9398 14.6562C82.4918 14.6562 82.9528 14.5 83.3226 14.1875C83.6924 13.8698 83.971 13.4375 84.1585 12.8906C84.3512 12.3437 84.4476 11.7214 84.4476 11.0234C84.4476 10.3255 84.3512 9.70313 84.1585 9.15625C83.971 8.60937 83.6924 8.17708 83.3226 7.85937C82.9528 7.54167 82.4918 7.38281 81.9398 7.38281C81.3825 7.38281 80.9137 7.54167 80.5335 7.85937C80.1585 8.17708 79.8747 8.60937 79.682 9.15625C79.4945 9.70313 79.4007 10.3255 79.4007 11.0234C79.4007 11.7214 79.4945 12.3437 79.682 12.8906C79.8747 13.4375 80.1585 13.8698 80.5335 14.1875C80.9137 14.5 81.3825 14.6562 81.9398 14.6562ZM93.1026 10.0625V17H89.7745V5H92.9463V7.11719H93.087C93.3526 6.41927 93.7979 5.86719 94.4229 5.46094C95.0479 5.04948 95.8057 4.84375 96.6963 4.84375C97.5297 4.84375 98.2562 5.02604 98.876 5.39062C99.4958 5.75521 99.9776 6.27604 100.321 6.95312C100.665 7.625 100.837 8.42708 100.837 9.35937V17H97.5088V9.95312C97.514 9.21875 97.3265 8.64583 96.9463 8.23438C96.5661 7.81771 96.0427 7.60937 95.376 7.60937C94.9281 7.60937 94.5323 7.70573 94.1885 7.89844C93.85 8.09115 93.5843 8.3724 93.3916 8.74219C93.2041 9.10677 93.1078 9.54688 93.1026 10.0625ZM108.709 17.2344C107.474 17.2344 106.412 16.9844 105.521 16.4844C104.636 15.9792 103.954 15.2656 103.474 14.3437C102.995 13.4167 102.756 12.3203 102.756 11.0547C102.756 9.82031 102.995 8.73698 103.474 7.80469C103.954 6.8724 104.628 6.14583 105.498 5.625C106.373 5.10417 107.399 4.84375 108.576 4.84375C109.368 4.84375 110.105 4.97135 110.787 5.22656C111.474 5.47656 112.073 5.85417 112.584 6.35937C113.099 6.86458 113.5 7.5 113.787 8.26562C114.073 9.02604 114.217 9.91667 114.217 10.9375V11.8516H104.084V9.78906H111.084C111.084 9.3099 110.98 8.88542 110.771 8.51563C110.563 8.14583 110.274 7.85677 109.904 7.64844C109.539 7.4349 109.115 7.32812 108.631 7.32812C108.125 7.32812 107.677 7.44531 107.287 7.67969C106.901 7.90885 106.599 8.21875 106.381 8.60937C106.162 8.99479 106.05 9.42448 106.045 9.89844V11.8594C106.045 12.4531 106.154 12.9661 106.373 13.3984C106.597 13.8307 106.912 14.1641 107.318 14.3984C107.724 14.6328 108.206 14.75 108.763 14.75C109.133 14.75 109.472 14.6979 109.779 14.5938C110.086 14.4896 110.349 14.3333 110.568 14.125C110.787 13.9167 110.954 13.6615 111.068 13.3594L114.146 13.5625C113.99 14.3021 113.67 14.9479 113.185 15.5C112.706 16.0469 112.086 16.474 111.326 16.7813C110.571 17.0833 109.698 17.2344 108.709 17.2344Z" fill="#EB0101"/>
</svg>
